<?xml version="1.0" standalone="no"?>
<!DOCTYPE svg PUBLIC "-//W3C//DTD SVG 20010904//EN"
 "http://www.w3.org/TR/2001/REC-SVG-20010904/DTD/svg10.dtd">
<svg version="1.0" xmlns="http://www.w3.org/2000/svg"
 width="600.000000pt" height="600.000000pt" viewBox="0 0 600.000000 600.000000"
 preserveAspectRatio="xMidYMid meet">
<metadata>
Created by potrace 1.11, written by Peter Selinger 2001-2013
</metadata>
<g transform="translate(0.000000,600.000000) scale(0.100000,-0.100000)"
fill="#000000" stroke="none">
<path d="M1075 3647 c-114 -38 -205 -129 -255 -256 -50 -128 -120 -219 -170
-222 -11 -1 -26 -2 -32 -2 -11 -1 -91 14 -163 29 -11 3 -52 5 -92 5 -139 2
-239 -49 -301 -151 -44 -75 -56 -120 -57 -220 0 -73 4 -92 27 -138 39 -74 84
-127 153 -179 102 -77 258 -145 364 -159 25 -3 50 -8 54 -11 15 -9 202 -4 257
7 30 6 66 14 80 16 39 8 171 65 225 98 156 93 294 246 375 411 67 136 84 206
84 335 -1 119 -21 189 -78 263 -101 133 -335 219 -471 174z m283 -96 c109 -55
165 -120 198 -232 20 -65 14 -204 -11 -289 -78 -255 -297 -491 -546 -584 -228
-86 -500 -61 -709 65 -202 121 -270 265 -210 445 52 157 192 219 396 177 124
-25 161 -27 209 -9 62 24 126 99 165 194 18 42 43 95 56 118 50 86 138 151
219 164 57 8 163 -14 233 -49z"/>
<path d="M899 3253 c-83 -129 -132 -168 -242 -197 -49 -13 -50 -15 -27 -24 36
-14 115 -5 159 18 72 36 131 125 150 224 5 25 7 46 6 46 -1 0 -22 -30 -46 -67z"/>
<path d="M1593 3509 c-39 -11 -41 -19 -12 -45 137 -124 117 -442 -42 -666
l-19 -26 61 -56 c75 -67 200 -131 300 -152 241 -52 537 63 625 241 63 129 -1
318 -125 367 -42 17 -151 21 -216 8 -97 -19 -105 -18 -137 4 -31 21 -52 54
-96 152 -64 144 -199 213 -339 173z m172 -65 c51 -24 90 -74 140 -179 67 -140
117 -170 247 -146 98 18 142 19 189 4 84 -28 132 -103 133 -207 0 -68 -36
-132 -107 -187 -177 -140 -423 -160 -629 -52 -37 19 -84 49 -104 67 l-38 33
23 39 c36 60 88 193 101 259 26 123 5 283 -46 362 -8 12 -14 24 -14 27 0 9 72
-4 105 -20z"/>
<path d="M1846 3233 c27 -119 120 -195 214 -174 l35 7 -50 13 c-64 16 -104 47
-156 121 -23 33 -44 60 -46 60 -2 0 -1 -12 3 -27z"/>
<path d="M3319 3233 c-1 -33 -1 -470 0 -495 1 -14 10 -18 41 -18 l40 0 0 270
0 270 -40 0 c-37 0 -40 -2 -41 -27z"/>
<path d="M3517 3253 c-2 -5 -3 -125 -3 -268 l1 -259 41 -4 42 -3 0 270 1 271
-39 0 c-21 0 -41 -3 -43 -7z"/>
<path d="M2744 3208 c-4 -6 -7 -99 -7 -205 1 -213 -2 -225 -56 -218 -31 4 -42
-8 -37 -41 5 -36 124 -41 158 -6 19 18 20 33 20 228 0 115 -1 219 -1 232 -1
18 -7 22 -35 22 -19 0 -38 -5 -42 -12z"/>
<path d="M4105 3212 c-7 -4 -11 -95 -10 -247 l0 -240 136 0 c97 0 143 4 162
14 67 36 71 197 6 232 l-21 11 22 24 c18 18 23 35 23 78 0 65 -20 102 -66 121
-34 14 -234 20 -252 7z m219 -88 c19 -19 21 -74 4 -96 -9 -12 -33 -18 -80 -20
-65 -3 -67 -2 -70 22 -2 14 -1 44 1 68 l3 42 63 0 c44 0 68 -5 79 -16z m20
-203 c17 -14 15 -83 -4 -106 -10 -12 -29 -15 -88 -13 l-75 3 0 38 c1 20 2 50
2 67 l1 29 75 -3 c41 -2 81 -8 89 -15z"/>
<path d="M3015 3086 c-63 -28 -95 -85 -96 -170 -2 -145 57 -208 188 -201 94 5
113 12 113 46 l0 30 -67 -4 c-95 -5 -128 6 -142 45 -6 17 -10 33 -8 34 2 2 53
4 114 5 110 1 111 1 116 26 6 34 -1 102 -14 135 -6 15 -23 35 -37 44 -33 22
-127 27 -167 10z m118 -69 c10 -6 20 -28 23 -48 l6 -35 -76 1 c-42 1 -79 5
-83 9 -12 12 12 60 37 73 32 16 72 16 93 0z"/>
<path d="M4626 3090 c-75 -23 -113 -104 -103 -216 7 -75 27 -114 71 -140 36
-21 126 -27 185 -12 36 9 41 14 41 39 l0 28 -85 -2 c-73 -1 -88 1 -105 19 -11
11 -22 30 -25 42 -4 24 4 25 156 22 77 -1 79 1 74 83 -6 83 -30 121 -87 138
-39 11 -82 10 -122 -1z m120 -85 c8 -10 14 -31 14 -45 0 -26 0 -26 -77 -25
l-78 2 3 29 c5 45 26 61 78 59 33 -1 50 -7 60 -20z"/>
<path d="M4973 3088 c-38 -8 -43 -12 -43 -38 l0 -28 85 1 c92 2 112 -7 115
-53 3 -39 1 -52 -9 -46 -4 3 -31 8 -59 12 -62 7 -117 -9 -139 -42 -18 -28 -19
-95 -2 -135 19 -48 101 -60 188 -29 25 10 35 10 40 1 4 -6 22 -10 40 -9 l32 2
-4 146 c-4 150 -13 186 -49 209 -25 16 -138 21 -195 9z m158 -225 c0 -5 2 -18
3 -31 4 -30 -12 -41 -67 -48 -31 -5 -52 -3 -62 6 -18 15 -20 51 -3 68 13 13
127 17 129 5z"/>
<path d="M5453 3081 c-44 -15 -53 -15 -58 -4 -3 9 -16 13 -32 11 l-28 -3 0
-180 0 -180 40 0 40 0 0 142 -1 142 26 6 c67 15 92 13 110 -5 16 -16 19 -35
19 -137 -1 -65 0 -125 0 -134 1 -12 11 -17 41 -17 l40 -1 0 149 c0 163 -7 193
-51 216 -37 19 -83 17 -146 -5z"/>
<path d="M3660 3087 c0 -7 120 -349 126 -358 3 -5 12 -9 19 -9 12 0 12 -6 5
-27 -24 -64 -32 -73 -71 -73 -27 0 -38 -5 -42 -19 -9 -34 11 -51 59 -51 57 0
88 21 109 73 20 49 165 456 165 463 0 2 -20 4 -44 4 l-45 0 -47 -145 c-25 -80
-48 -145 -49 -143 -2 2 -24 67 -50 146 l-46 142 -45 0 c-24 0 -44 -1 -44 -3z"/>
</g>
</svg>
